# xmcd CD database file
#
# Track frame offsets:
#	150
#	28700
#	59707
#	88655
#	106205
#
# Disc length: 1666 seconds
#
# Revision: 0
# Processed by: cddbd v1.5.2PL0 Copyright (c) Steve Scherf et al.
# Submitted via: CDex 1.51
#
DISCID=3d068005
DTITLE=Sylvain Luc, Jean-Marc Jafet, André Ceccarelli - SUD
DYEAR=2000
DGENRE=Jazz
TTITLE0=Night In Tunisia (Dizzy Gillespie, Frank Paparelli)
TTITLE1=A Little Man You've had a Busy Day (Maurice Sigler- Al Offman - Mabel Wayne)
TTITLE2=Jade et Melody (Jean-Marc Jafet)
TTITLE3=Chez Laurette (Michel Delpech - Reynaldo Pultek)
TTITLE4=Roots 6406 (Jean-Marc Jafet, Sylvain Luc, André Ceccarelli)
EXTD=YEAR: 2000
EXTT0=
EXTT1=
EXTT2=
EXTT3=
EXTT4=
PLAYORDER=
